<svg width="24" height="24" viewBox="0 0 24 24" fill="none" xmlns="http://www.w3.org/2000/svg">
<path d="M19.52 18.5733C21.06 16.8133 22 14.5199 22 12C22 9.48006 21.06 7.1867 19.52 5.42668L20.4733 4.47333C20.7333 4.21331 20.7333 3.78664 20.4733 3.52665C20.2133 3.26666 19.7866 3.26664 19.5267 3.52665L18 5.33335L18.2733 4.23917C16.555 2.8475 14.3817 2 12 2C9.48006 2 7.18671 2.94 5.4267 4.48003L4.47334 3.52667C4.21333 3.26666 3.78666 3.26666 3.52667 3.52667C3.26668 3.78669 3.26666 4.21336 3.52667 4.47335L4.48002 5.4267C2.94 7.18672 2 9.48008 2 12C2 14.5199 2.94 16.8133 4.48002 18.5733L3.52667 19.5266C3.26666 19.7867 3.26666 20.2133 3.52667 20.4733C3.66 20.6 3.82666 20.6667 4.00002 20.6667C4.17337 20.6667 4.34003 20.6 4.47337 20.4733L5.42672 19.52C7.18673 21.06 9.48009 22 12 22C14.5199 22 16.8133 21.06 18.5733 19.52L19.5266 20.4733C19.66 20.6 19.8266 20.6667 20 20.6667C20.1733 20.6667 20.34 20.6 20.4733 20.4733C20.7333 20.2133 20.7333 19.7866 20.4733 19.5266L19.52 18.5733ZM9.96 3.58645C10.62 3.42645 11.3 3.33311 12 3.33311C12.7 3.33311 13.3867 3.42645 14.04 3.58645C14.1 3.94645 14.2467 5.38647 12.96 6.75982C12.6467 6.69982 12.3267 6.66648 12 6.66648C11.6734 6.66648 11.3534 6.69982 11.04 6.75982C9.75335 5.38647 9.89999 3.94635 9.96 3.58645ZM3.58662 14.0399C3.42661 13.3799 3.33328 12.6999 3.33328 11.9999C3.33328 11.2999 3.42661 10.6132 3.58662 9.95985C3.94662 9.89985 5.38663 9.75318 6.75998 11.0399C6.69998 11.3532 6.66664 11.6732 6.66664 11.9999C6.66664 12.3265 6.69998 12.6465 6.75998 12.9599C5.38663 14.2466 3.94651 14.0999 3.58662 14.0399ZM7.33833 18.735C6.95834 18.5783 6.49499 18.2767 6.10749 17.8925C5.72249 17.5041 5.42249 17.0408 5.26582 16.6608C5.09999 16.2816 5.07082 16 5.07082 16C5.07082 16 5.29749 16.1758 5.57915 16.4433C5.86498 16.7125 6.22332 17.0675 6.57916 17.4208C6.93249 17.7766 7.28833 18.1341 7.5575 18.42C7.82666 18.7025 8 18.9283 8 18.9283C8 18.9291 7.71501 18.8992 7.33833 18.735ZM14.04 20.4133C13.38 20.5733 12.7 20.6667 12 20.6667C11.3 20.6667 10.6133 20.5733 9.96 20.4133C9.9 20.0533 9.75334 18.6133 11.04 17.24C11.3534 17.3 11.6734 17.3333 12 17.3333C12.3267 17.3333 12.6467 17.3 12.96 17.24C14.2467 18.6133 14.1 20.0534 14.04 20.4133ZM12 15.9998C9.79328 15.9998 7.99999 14.2065 7.99999 11.9998C7.99999 9.79311 9.79333 7.99977 12 7.99977C14.2067 7.99977 16.0001 9.79311 16.0001 11.9998C16.0001 14.2065 14.2067 15.9998 12 15.9998ZM17.24 12.9598C17.3 12.6465 17.3333 12.3265 17.3333 11.9998C17.3333 11.6731 17.3 11.3531 17.24 11.0398C18.6133 9.75313 20.0534 9.89977 20.4133 9.95979C20.5733 10.6198 20.6667 11.2998 20.6667 11.9998C20.6667 12.6998 20.5733 13.3798 20.4133 14.0398C20.0533 14.0998 18.6133 14.2465 17.24 12.9598Z" fill="#E51F30"/>
</svg>
