<svg width="24" height="24" viewBox="0 0 24 24" fill="none" xmlns="http://www.w3.org/2000/svg">
<path d="M2 3C2 2.44772 2.44772 2 3 2C3.55228 2 4 2.44772 4 3V20H21C21.5523 20 22 20.4477 22 21C22 21.5523 21.5523 22 21 22H3C2.44772 22 2 21.5523 2 21V3Z" fill="#E51F30"/>
<path d="M18.1865 7.41879C18.5075 6.96938 19.1316 6.86536 19.581 7.18637C20.0305 7.50738 20.1345 8.13149 19.8135 8.5809L14.8135 15.5809C14.6426 15.8201 14.375 15.9727 14.082 15.9969C13.7892 16.021 13.5007 15.9146 13.293 15.7069L9.99999 12.4139L7.70702 14.7069C7.31649 15.0974 6.68348 15.0974 6.29295 14.7069C5.90243 14.3164 5.90243 13.6833 6.29295 13.2928L9.29295 10.2928L9.36913 10.2245C9.7619 9.9041 10.3409 9.9267 10.707 10.2928L13.8721 13.4579L18.1865 7.41879Z" fill="#E51F30"/>
</svg>
