<svg width="24" height="24" viewBox="0 0 24 24" fill="none" xmlns="http://www.w3.org/2000/svg">
<rect width="24" height="24" fill="white"/>
<path d="M3.64791 12.8344H19.9611C20.2813 12.8344 20.5886 12.7072 20.8151 12.4798C21.0417 12.2533 21.1689 11.946 21.1689 11.6258V4.20859C21.1689 3.54106 20.6279 3 19.9604 3L3.64795 3.0008C2.98123 3.0008 2.44019 3.54186 2.44019 4.20859V11.6258C2.44019 11.946 2.56744 12.2533 2.79396 12.4799C3.02047 12.7072 3.32776 12.8344 3.64791 12.8344ZM15.8368 6.79394C16.2914 6.79394 16.7012 7.06766 16.8749 7.48788C17.0485 7.90729 16.9525 8.39071 16.6307 8.71169C16.3098 9.03345 15.8264 9.12951 15.4062 8.95581C14.9868 8.78132 14.713 8.37151 14.713 7.9169C14.7122 7.61916 14.8307 7.3334 15.042 7.1229C15.2525 6.91161 15.539 6.79314 15.8368 6.79394ZM11.8044 6.79394C12.259 6.79394 12.6688 7.06766 12.8425 7.48708C13.0162 7.90729 12.9201 8.39073 12.5992 8.71169C12.2774 9.03345 11.794 9.12951 11.3746 8.95581C10.9544 8.78132 10.6807 8.37151 10.6807 7.9169C10.6807 7.2966 11.1841 6.79394 11.8044 6.79394ZM7.77206 6.79394C8.22668 6.79394 8.63647 7.06766 8.81014 7.48708C8.98383 7.90729 8.88778 8.39073 8.56683 8.71169C8.24508 9.03345 7.76165 9.12951 7.34225 8.95581C6.92205 8.78132 6.64833 8.37151 6.64833 7.9169C6.64833 7.2966 7.15176 6.79394 7.77206 6.79394Z" fill="#E51F30"/>
<path d="M6.8656 15.5031C6.8656 16.5612 6.00759 17.4192 4.95029 17.4192C3.89218 17.4192 3.03418 16.5612 3.03418 15.5031C3.03418 14.4449 3.89218 13.5869 4.94949 13.5869C6.00759 13.5869 6.8656 14.4449 6.8656 15.5031Z" fill="#E51F30"/>
<path d="M2.69712 17.8779H7.2032C7.58818 17.8779 7.90032 18.2629 7.90032 18.5751V19.2498C7.90032 19.6348 7.58818 19.9469 7.2032 19.9469H2.69712C2.31214 19.9469 2 19.562 2 19.2498V18.5751C2 18.1901 2.31214 17.8779 2.69712 17.8779Z" fill="#E51F30"/>
<path d="M13.7208 15.5031C13.7208 16.5612 12.8628 17.4192 11.8047 17.4192C10.7466 17.4192 9.88861 16.5612 9.88861 15.5031C9.88861 14.4449 10.7466 13.5869 11.8047 13.5869C12.8628 13.5869 13.7208 14.4449 13.7208 15.5031Z" fill="#E51F30"/>
<path d="M9.55161 17.8779H14.0577C14.4427 17.8779 14.7548 18.2629 14.7548 18.5751V19.2498C14.7548 19.6348 14.4427 19.9469 14.0577 19.9469H9.55161C9.16663 19.9469 8.85449 19.562 8.85449 19.2498V18.5751C8.85449 18.1901 9.16663 17.8779 9.55161 17.8779Z" fill="#E51F30"/>
<path d="M20.5752 15.5031C20.5752 16.5612 19.7172 17.4192 18.6591 17.4192C17.6018 17.4192 16.7438 16.5612 16.7438 15.5031C16.7438 14.4449 17.6018 13.5869 18.6591 13.5869C19.7172 13.5869 20.5752 14.4449 20.5752 15.5031Z" fill="#E51F30"/>
<path d="M16.4068 17.8779H20.9129C21.2978 17.8779 21.61 18.2629 21.61 18.5751V19.2498C21.61 19.6348 21.2978 19.9469 20.9129 19.9469H16.4068C16.0218 19.9469 15.7097 19.562 15.7097 19.2498V18.5751C15.7097 18.1901 16.0218 17.8779 16.4068 17.8779Z" fill="#E51F30"/>
</svg>
