<svg width="24" height="24" viewBox="0 0 24 24" fill="none" xmlns="http://www.w3.org/2000/svg">
<path d="M8.1765 11.2125V14.9547C8.1765 15.272 7.91322 15.5305 7.58822 15.5305H2.58827C2.26328 15.5305 2 15.272 2 14.9547V10.3485C2 9.0769 3.05311 8.04532 4.35318 8.04532H13.3235C14.2172 8.04532 14.9414 8.75415 14.9414 9.62889C14.9414 10.5029 14.2172 11.2125 13.3235 11.2125L8.1765 11.2125ZM4.64693 6.60637C3.34773 6.60637 2.29376 5.57563 2.29376 4.30318C2.29376 3.03158 3.34765 2 4.64693 2C5.94692 2 7.00011 3.0315 7.00011 4.30318C7.00011 5.57555 5.947 6.60637 4.64693 6.60637ZM4.64693 21C3.34773 21 2.29376 19.9685 2.29376 18.6968C2.29376 17.4244 3.34765 16.3936 4.64693 16.3936C5.94692 16.3936 7.00011 17.4244 7.00011 18.6968C7.00011 19.9684 5.947 21 4.64693 21ZM12.0001 21C10.7009 21 9.64688 19.9685 9.64688 18.6968C9.64688 17.4244 10.7008 16.3936 12.0001 16.3936C13.2993 16.3936 14.3532 17.4244 14.3532 18.6968C14.3532 19.9684 13.2993 21 12.0001 21ZM19.3532 21C18.0532 21 17 19.9685 17 18.6968C17 17.4244 18.0531 16.3936 19.3532 16.3936C20.6524 16.3936 21.7064 17.4244 21.7064 18.6968C21.7064 19.9684 20.6525 21 19.3532 21ZM9.05869 3.43993C8.73369 3.43993 8.47042 3.18225 8.47042 2.86415C8.47042 2.54606 8.73369 2.28838 9.05869 2.28838H20.2352C21.2102 2.28838 22 3.06143 22 4.01571V11.5C22 12.4543 21.2102 13.2273 20.2352 13.2273H17.2938C16.9696 13.2273 16.7063 12.9696 16.7063 12.6515C16.7063 12.3334 16.9696 12.0758 17.2938 12.0758H20.2352C20.5602 12.0758 20.8235 11.8181 20.8235 11.5V4.01571C20.8235 3.69761 20.5602 3.43993 20.2352 3.43993H9.05869Z" fill="#E51F30"/>
</svg>
