<svg width="24" height="24" viewBox="0 0 24 24" fill="none" xmlns="http://www.w3.org/2000/svg">
<path d="M18.4853 10.7422C19.8049 10.7422 20.8772 9.6689 20.8772 8.35012C20.8772 7.03137 19.8039 5.95801 18.4853 5.95801C17.1666 5.95801 16.0933 7.03135 16.0933 8.35012C16.0933 9.66888 17.1666 10.7422 18.4853 10.7422Z" fill="#E51F30"/>
<path d="M19.3649 12.8155H17.607C17.4217 12.8155 17.2413 12.8336 17.0637 12.8603C17.8485 13.7799 18.326 14.9698 18.326 16.2713V17.1222C18.326 17.7181 18.2219 18.2891 18.0386 18.8239H22.5904C22.851 18.3235 23 17.7562 23 17.1546V16.4518C23 14.4465 21.3691 12.8155 19.3649 12.8155Z" fill="#E51F30"/>
<path d="M5.51462 5.95801C4.19501 5.95801 3.12268 7.03135 3.12268 8.35013C3.12268 9.6689 4.19594 10.7422 5.51462 10.7422C6.83329 10.7422 7.90655 9.6689 7.90655 8.35013C7.90655 7.03135 6.83329 5.95801 5.51462 5.95801Z" fill="#E51F30"/>
<path d="M5.96143 18.8238C5.7781 18.2891 5.67402 17.718 5.67402 17.1222V16.2713C5.67402 14.9707 6.15144 13.78 6.93635 12.8603C6.75875 12.8336 6.57829 12.8154 6.39302 12.8154H4.63513C2.63088 12.8154 1 14.4465 1 16.4518V17.1546C1 17.7562 1.14896 18.3225 1.40964 18.8229L5.96143 18.8238Z" fill="#E51F30"/>
<path d="M14.7109 7.71207C14.7109 9.2094 13.4973 10.4232 12 10.4232C10.5027 10.4232 9.28912 9.20945 9.28912 7.71207C9.28912 6.21469 10.5027 5 12 5C13.4973 5 14.7109 6.21469 14.7109 7.71207Z" fill="#E51F30"/>
<path d="M10.937 11.9639C8.56232 11.9639 6.63068 13.8957 6.63068 16.2706V17.1214C6.63068 17.7259 6.75672 18.3008 6.98206 18.8231H17.0167C17.2421 18.3008 17.3681 17.7259 17.3681 17.1214V16.2706C17.3681 13.8957 15.4365 11.9639 13.0618 11.9639H10.937Z" fill="#E51F30"/>
</svg>
