<svg width="24" height="24" viewBox="0 0 24 24" fill="none" xmlns="http://www.w3.org/2000/svg">
<path d="M21.33 6.99451C21.3339 6.35805 21.0833 5.74678 20.6338 5.29729L17.0154 1.69613C16.5698 1.25061 15.9652 1 15.3354 1H6.73388C4.67203 1 3 2.67203 3 4.73388V18.3116C3 20.3735 4.67203 22.0455 6.73388 22.0455H17.5961C19.6579 22.0455 21.33 20.3735 21.33 18.3116V6.99451ZM19.2933 18.3116C19.2933 18.761 19.1143 19.1933 18.7961 19.5116C18.4779 19.8298 18.0456 20.0088 17.5961 20.0088H6.73388C5.79644 20.0088 5.03666 19.249 5.03666 18.3116V4.73381C5.03666 3.79637 5.79644 3.03659 6.73388 3.03659H15.4786L19.2933 6.85126V18.3116Z" fill="#E51F30"/>
<path d="M14.8805 14.2383H9.44942C8.88724 14.2383 8.43109 14.6944 8.43109 15.2566C8.43109 15.8188 8.88724 16.2749 9.44942 16.2749H14.8805C15.4427 16.2749 15.8988 15.8188 15.8988 15.2566C15.8988 14.6944 15.4427 14.2383 14.8805 14.2383Z" fill="#E51F30"/>
</svg>
