<svg width="24" height="24" viewBox="0 0 24 24" fill="none" xmlns="http://www.w3.org/2000/svg">
<path d="M20.4943 2H4.45573C3.10129 2 2 3.10129 2 4.45453V18.8015C2 20.1547 3.10249 21.256 4.45573 21.256H20.4943C21.8475 21.256 22.9488 20.1547 22.9488 18.8015L22.95 4.45453C22.95 3.10252 21.8463 2 20.4943 2ZM7.06991 4.05384H17.8789V5.20193L7.06991 5.20313V4.05384ZM21.274 18.8025C21.274 19.2332 20.9249 19.5835 20.4942 19.5835L4.4557 19.5823C4.02503 19.5823 3.67351 19.232 3.67351 18.8013L3.67471 7.11766H21.274L21.274 18.8025Z" fill="#E51F30"/>
<path d="M16.6431 12.561L17.0996 12.1095H17.0992C17.3689 11.832 17.52 11.4599 17.52 11.0727C17.52 10.6856 17.3689 10.3135 17.0992 10.036L16.4843 9.42091C16.2068 9.15115 15.8349 9 15.4478 9C15.0607 9 14.6887 9.15115 14.4113 9.42091L13.9599 9.87709L16.6431 12.561Z" fill="#E51F30"/>
<path d="M13.2603 10.5742L9.14376 14.6868C9.05115 14.7806 8.99923 14.9073 9.00001 15.0391V17.0235C9.00001 17.1548 9.05232 17.2812 9.14531 17.3742C9.2383 17.4672 9.36462 17.5196 9.49598 17.5196H11.4799C11.6116 17.5203 11.7383 17.4684 11.8321 17.3758L15.9436 13.2582L13.2603 10.5742Z" fill="#E51F30"/>
</svg>
