<svg width="24" height="24" viewBox="0 0 24 24" fill="none" xmlns="http://www.w3.org/2000/svg">
<path d="M12.5 4C15.9661 4 18.5845 5.86775 20.2864 7.63265C21.1431 8.52112 21.7913 9.40653 22.2253 10.0693C22.4427 10.4014 22.6079 10.68 22.7203 10.8784C22.7765 10.9777 22.82 11.0572 22.8498 11.1133C22.8647 11.1414 22.876 11.1644 22.8843 11.1805C22.8883 11.1883 22.8921 11.1943 22.8946 11.1991C22.8958 11.2015 22.8965 11.204 22.8974 11.2056L22.8983 11.2075L22.8992 11.2084C22.8994 11.2088 22.8991 11.2094 22.0454 11.6363C22.8991 12.0632 22.8994 12.0638 22.8992 12.0642L22.8983 12.0651L22.8974 12.067C22.8965 12.0686 22.8958 12.071 22.8946 12.0735C22.8921 12.0783 22.8883 12.0843 22.8843 12.0921C22.876 12.1082 22.8647 12.1311 22.8498 12.1592C22.82 12.2154 22.7765 12.2949 22.7203 12.3941C22.6079 12.5925 22.4427 12.8712 22.2253 13.2033C21.7913 13.8661 21.1431 14.7515 20.2864 15.6399C18.5845 17.4048 15.9661 19.2726 12.5 19.2726C9.03387 19.2726 6.41554 17.4048 4.71363 15.6399C3.85688 14.7515 3.2087 13.8661 2.77473 13.2033C2.5573 12.8712 2.39212 12.5925 2.27975 12.3941C2.22354 12.2949 2.18 12.2154 2.15018 12.1592C2.13527 12.1311 2.12398 12.1082 2.11569 12.0921C2.11167 12.0843 2.10788 12.0783 2.10543 12.0735C2.10419 12.071 2.10346 12.0686 2.10264 12.067L2.10171 12.0651L2.10077 12.0642C2.10059 12.0638 2.10087 12.0632 2.95464 11.6363C2.10087 11.2094 2.10059 11.2088 2.10077 11.2084L2.10171 11.2075L2.10264 11.2056C2.10346 11.204 2.10419 11.2015 2.10543 11.1991C2.10788 11.1943 2.11167 11.1883 2.11569 11.1805C2.12398 11.1644 2.13527 11.1414 2.15018 11.1133C2.18 11.0572 2.22354 10.9777 2.27975 10.8784C2.39212 10.68 2.5573 10.4014 2.77473 10.0693C3.2087 9.40653 3.85688 8.52112 4.71363 7.63265C6.41554 5.86775 9.03387 4 12.5 4ZM12.5 5.90907C9.76175 5.90907 7.6073 7.38224 6.08764 8.95818C5.33372 9.74006 4.75876 10.5252 4.37246 11.1152C4.24173 11.3149 4.13379 11.4915 4.04806 11.6363C4.13379 11.7811 4.24173 11.9577 4.37246 12.1574C4.75876 12.7474 5.33372 13.5325 6.08764 14.3144C7.6073 15.8903 9.76175 17.3635 12.5 17.3635C15.2383 17.3635 17.3927 15.8903 18.9124 14.3144C19.6663 13.5325 20.2412 12.7474 20.6275 12.1574C20.7581 11.9579 20.8653 11.781 20.951 11.6363C20.8653 11.4915 20.7581 11.3147 20.6275 11.1152C20.2412 10.5252 19.6663 9.74006 18.9124 8.95818C17.3927 7.38224 15.2383 5.90907 12.5 5.90907ZM2.95464 11.6363L2.10077 12.0632C1.96641 11.7945 1.96641 11.4781 2.10077 11.2094L2.95464 11.6363ZM22.8992 11.2094C23.0336 11.4781 23.0336 11.7945 22.8992 12.0632L22.0454 11.6363L22.8992 11.2094Z" fill="#E51F30"/>
<path d="M14.4091 11.6365C14.4091 10.5822 13.5544 9.72743 12.5 9.72743C11.4457 9.72743 10.591 10.5822 10.591 11.6365C10.591 12.6909 11.4457 13.5456 12.5 13.5456C13.5544 13.5456 14.4091 12.6909 14.4091 11.6365ZM16.3182 11.6365C16.3182 13.7452 14.6087 15.4547 12.5 15.4547C10.3913 15.4547 8.68188 13.7452 8.68188 11.6365C8.68188 9.5278 10.3913 7.81836 12.5 7.81836C14.6087 7.81836 16.3182 9.5278 16.3182 11.6365Z" fill="#E51F30"/>
</svg>
