<svg width="24" height="24" viewBox="0 0 24 24" fill="none" xmlns="http://www.w3.org/2000/svg">
<path d="M12.9715 22.2572C12.686 22.4476 12.314 22.4476 12.0285 22.2572L12.5 21.55L12.9715 22.2572ZM19.3 10.5C19.3 9.60701 19.1238 8.72272 18.782 7.89771C18.4403 7.07276 17.94 6.32275 17.3086 5.69136C16.6772 5.05996 15.9272 4.5597 15.1023 4.21797C14.2773 3.87624 13.393 3.7 12.5 3.7C11.607 3.7 10.7227 3.87624 9.89771 4.21797C9.07276 4.5597 8.32275 5.05996 7.69136 5.69136C7.05996 6.32275 6.5597 7.07276 6.21797 7.89771C5.87624 8.72272 5.7 9.60701 5.7 10.5C5.7 13.1333 7.41308 15.6888 9.29175 17.6719C10.2137 18.6451 11.139 19.4416 11.8343 19.9953C12.0926 20.201 12.3191 20.3713 12.5 20.5049C12.6809 20.3713 12.9074 20.201 13.1657 19.9953C13.861 19.4416 14.7863 18.6451 15.7083 17.6719C17.5869 15.6888 19.3 13.1333 19.3 10.5ZM21 10.5C21 13.8167 18.8881 16.7862 16.9417 18.8406C15.9513 19.8861 14.9639 20.7365 14.2249 21.325C13.8549 21.6197 13.5454 21.8503 13.3268 22.0082C13.2176 22.0871 13.1306 22.1482 13.0703 22.19C13.0402 22.2108 13.0162 22.2269 12.9997 22.2381C12.9914 22.2438 12.9845 22.2483 12.9798 22.2514C12.9775 22.253 12.9754 22.2546 12.974 22.2556L12.9723 22.2564V22.2572C12.9721 22.2574 12.9715 22.2572 12.5 21.55C12.0285 22.2572 12.0279 22.2574 12.0277 22.2572V22.2564L12.026 22.2556C12.0246 22.2546 12.0225 22.253 12.0202 22.2514C12.0155 22.2483 12.0086 22.2438 12.0003 22.2381C11.9838 22.2269 11.9598 22.2108 11.9297 22.19C11.8694 22.1482 11.7824 22.0871 11.6732 22.0082C11.4546 21.8503 11.1451 21.6197 10.7751 21.325C10.0361 20.7365 9.04874 19.8861 8.05825 18.8406C6.11194 16.7862 4 13.8167 4 10.5C4 9.38376 4.21947 8.27819 4.64663 7.24692C5.0738 6.21569 5.70013 5.27868 6.4894 4.4894C7.27868 3.70013 8.21569 3.0738 9.24692 2.64663C10.2782 2.21947 11.3838 2 12.5 2C13.6162 2 14.7218 2.21947 15.7531 2.64663C16.7843 3.0738 17.7213 3.70013 18.5106 4.4894C19.2999 5.27868 19.9262 6.21569 20.3534 7.24692C20.7805 8.27819 21 9.38376 21 10.5Z" fill="#E51F30"/>
<path d="M14.2 10.5006C14.2 9.5617 13.4389 8.80059 12.5 8.80059C11.5612 8.80059 10.8 9.5617 10.8 10.5006C10.8 11.4395 11.5612 12.2006 12.5 12.2006C13.4389 12.2006 14.2 11.4395 14.2 10.5006ZM15.9 10.5006C15.9 12.3784 14.3778 13.9006 12.5 13.9006C10.6223 13.9006 9.10004 12.3784 9.10004 10.5006C9.10004 8.62282 10.6223 7.10059 12.5 7.10059C14.3778 7.10059 15.9 8.62282 15.9 10.5006Z" fill="#E51F30"/>
</svg>
