<svg width="24" height="24" viewBox="0 0 24 24" fill="none" xmlns="http://www.w3.org/2000/svg">
<path d="M13.027 23.6404C12.7078 23.8532 12.2922 23.8532 11.973 23.6404L12.5 22.85L13.027 23.6404ZM20.1 10.5C20.1 9.50195 19.903 8.51363 19.5211 7.59155C19.1392 6.66955 18.58 5.83131 17.8744 5.12563C17.1687 4.41996 16.3304 3.86084 15.4084 3.47891C14.4864 3.09697 13.498 2.9 12.5 2.9C11.502 2.9 10.5136 3.09697 9.59155 3.47891C8.66955 3.86084 7.83131 4.41996 7.12563 5.12563C6.41996 5.83131 5.86084 6.66955 5.47891 7.59155C5.09697 8.51363 4.9 9.50195 4.9 10.5C4.9 13.4431 6.81462 16.2993 8.91431 18.5156C9.94473 19.6033 10.9788 20.4935 11.756 21.1124C12.0447 21.3423 12.2979 21.5326 12.5 21.682C12.7021 21.5326 12.9553 21.3423 13.244 21.1124C14.0212 20.4935 15.0553 19.6033 16.0857 18.5156C18.1854 16.2993 20.1 13.4431 20.1 10.5ZM22 10.5C22 14.2068 19.6396 17.5257 17.4643 19.8219C16.3573 20.9904 15.2538 21.9408 14.4278 22.5986C14.0143 22.9279 13.6684 23.1856 13.424 23.3621C13.302 23.4503 13.2048 23.5186 13.1374 23.5653C13.1038 23.5886 13.077 23.6065 13.0585 23.6191C13.0492 23.6254 13.0415 23.6304 13.0362 23.6339C13.0337 23.6356 13.0313 23.6375 13.0297 23.6386L13.0279 23.6395V23.6404C13.0276 23.6406 13.027 23.6404 12.5 22.85C11.973 23.6404 11.9724 23.6406 11.9721 23.6404V23.6395L11.9703 23.6386C11.9687 23.6375 11.9663 23.6356 11.9638 23.6339C11.9585 23.6304 11.9508 23.6254 11.9415 23.6191C11.923 23.6065 11.8962 23.5886 11.8626 23.5653C11.7952 23.5186 11.698 23.4503 11.576 23.3621C11.3316 23.1856 10.9857 22.9279 10.5722 22.5986C9.74617 21.9408 8.64271 20.9904 7.53569 19.8219C5.3604 17.5257 3 14.2068 3 10.5C3 9.25244 3.24529 8.0168 3.72271 6.86421C4.20012 5.71166 4.90014 4.66441 5.78228 3.78228C6.66441 2.90014 7.71166 2.20012 8.86421 1.72271C10.0168 1.24529 11.2524 1 12.5 1C13.7476 1 14.9832 1.24529 16.1358 1.72271C17.2883 2.20012 18.3356 2.90014 19.2177 3.78228C20.0999 4.66441 20.7999 5.71165 21.2773 6.86421C21.7547 8.0168 22 9.25244 22 10.5Z" fill="#E51F30"/>
<path d="M14.4 10.5002C14.4 9.45085 13.5494 8.6002 12.5 8.6002C11.4507 8.6002 10.6 9.45085 10.6 10.5002C10.6 11.5495 11.4507 12.4002 12.5 12.4002C13.5494 12.4002 14.4 11.5495 14.4 10.5002ZM16.3 10.5002C16.3 12.5989 14.5987 14.3002 12.5 14.3002C10.4013 14.3002 8.70001 12.5989 8.70001 10.5002C8.70001 8.40151 10.4013 6.7002 12.5 6.7002C14.5987 6.7002 16.3 8.40151 16.3 10.5002Z" fill="#E51F30"/>
</svg>
