<svg width="12" height="12" viewBox="0 0 12 12" fill="none" xmlns="http://www.w3.org/2000/svg">
<g clip-path="url(#clip0_1652_476)">
<path fill-rule="evenodd" clip-rule="evenodd" d="M9.59698 1.16698L5.33351 5.42986C5.08337 5.68059 5.08337 6.08687 5.33351 6.3376C5.58366 6.58774 5.99109 6.58832 6.24125 6.3376L10.503 2.07646V3.50158C10.503 3.82296 10.7639 4.08451 11.0865 4.08451C11.4078 4.08451 11.67 3.82353 11.67 3.50158V0.582928C11.67 0.422233 11.6044 0.276928 11.499 0.17095C11.3936 0.0655325 11.2477 0 11.087 0H8.16838C7.847 0 7.58545 0.260984 7.58545 0.583497C7.58545 0.904873 7.84643 1.16699 8.16838 1.16699L9.59698 1.16698ZM11.67 7.00195V4.22801V10.2157C11.67 11.0186 11.0911 11.6699 10.3765 11.6699H1.2935C0.578946 11.6699 0 11.0174 0 10.2157V1.45421C0 0.651329 0.578946 1.46072e-05 1.2935 1.46072e-05H7.52218H4.66801C4.99052 1.46072e-05 5.2515 0.260998 5.2515 0.583512C5.2515 0.906025 4.99052 1.16701 4.66801 1.16701H1.49918C1.31342 1.16701 1.16698 1.34137 1.16698 1.5562V10.1138C1.16698 10.3246 1.3157 10.503 1.49918 10.503H10.1707C10.3564 10.503 10.5029 10.3286 10.5029 10.1138V7.00198C10.5029 6.67947 10.7639 6.41848 11.0864 6.41848C11.4089 6.41848 11.67 6.67944 11.67 7.00195Z" fill="#E51F30"/>
</g>
<defs>
<clipPath id="clip0_1652_476">
<rect width="12" height="12" fill="white"/>
</clipPath>
</defs>
</svg>
