<svg width="24" height="24" viewBox="0 0 24 24" fill="none" xmlns="http://www.w3.org/2000/svg">
<path d="M20.7648 1.00002H6.43959C5.41779 1.00178 4.59 1.82957 4.58913 2.85048V19.2991H1.80548C1.72472 19.2991 1.6466 19.3316 1.58954 19.3886C1.53248 19.4466 1.5 19.5238 1.5 19.6054V21.1495C1.50088 22.1705 2.32867 22.9982 3.35046 23H17.6757C18.6974 22.9982 19.5252 22.1705 19.5261 21.1495V4.69038H22.3098C22.3905 4.69038 22.4686 4.6579 22.5266 4.60084C22.5836 4.5429 22.6161 4.46478 22.6152 4.38314V2.85046C22.6144 1.82954 21.7866 1.00178 20.7648 1.00002ZM18.9152 2.85048V21.1497C18.9196 21.4815 18.7914 21.801 18.5579 22.0372C18.3253 22.2733 18.0075 22.4058 17.6757 22.4058C17.3448 22.4058 17.027 22.2733 16.7935 22.0372C16.5609 21.801 16.4327 21.4815 16.4371 21.1497V19.6056C16.4371 19.5239 16.4046 19.4467 16.3476 19.3888C16.2905 19.3317 16.2124 19.2992 16.1316 19.2992H5.19997V2.85062C5.20085 2.16679 5.75565 1.61202 6.43946 1.61202H19.3927C19.0846 1.95085 18.9143 2.39227 18.9152 2.85048ZM6.40981 9.69937C6.40981 9.53083 6.54675 9.39388 6.7153 9.39388H17.4002C17.4827 9.39212 17.5626 9.42285 17.6214 9.48078C17.6811 9.53784 17.7145 9.61685 17.7145 9.69936C17.7145 9.78188 17.6811 9.86088 17.6214 9.91882C17.5626 9.97588 17.4827 10.0075 17.4002 10.0048H6.7153C6.63454 10.0048 6.55641 9.97324 6.49935 9.91531C6.4423 9.85825 6.40981 9.78013 6.40981 9.69937ZM17.7057 11.4857C17.7057 11.6552 17.5688 11.7912 17.4003 11.7921H6.71534C6.5468 11.7921 6.40986 11.6552 6.40986 11.4857C6.40986 11.3172 6.5468 11.1802 6.71534 11.1802H17.4003C17.5688 11.1802 17.7057 11.3172 17.7057 11.4857ZM17.7057 13.2721C17.7057 13.4415 17.5688 13.5785 17.4003 13.5785H6.71534C6.54944 13.5732 6.41777 13.438 6.41777 13.273C6.41777 13.1071 6.54944 12.9719 6.71534 12.9675H17.4003C17.5688 12.9675 17.7057 13.1036 17.7057 13.2721ZM17.7057 15.0594C17.7057 15.2279 17.5688 15.3648 17.4003 15.3648H6.71534C6.5468 15.3648 6.40986 15.2279 6.40986 15.0594C6.40986 14.8908 6.5468 14.7539 6.71534 14.7539H17.4003C17.5688 14.7539 17.7057 14.8908 17.7057 15.0594ZM17.7057 16.8457C17.7057 17.0143 17.5688 17.1512 17.4003 17.1512H6.71534C6.54944 17.1468 6.41777 17.0116 6.41777 16.8457C6.41777 16.6807 6.54944 16.5446 6.71534 16.5402H17.4003C17.5688 16.5402 17.7057 16.6772 17.7057 16.8457ZM8.53951 8.74964C8.60359 8.77159 8.67294 8.77159 8.7379 8.74964C9.6403 8.43977 10.3066 8.13428 10.6673 7.00453H10.6665C10.6761 6.97469 10.6814 6.94309 10.6814 6.91149V4.82401C10.6814 4.67654 10.5752 4.54924 10.4295 4.5238C10.1881 4.47465 9.96158 4.37106 9.7667 4.22094C9.6403 4.12526 9.5218 4.01992 9.41207 3.90494C9.35501 3.84437 9.27513 3.81013 9.19173 3.81013H8.08392C8.00052 3.81013 7.92152 3.84437 7.86358 3.90494C7.75473 4.01993 7.63623 4.12527 7.50895 4.22094C7.31407 4.37105 7.08759 4.47463 6.84619 4.5238C6.70135 4.54926 6.59513 4.67655 6.59513 4.82401V6.91149C6.59513 6.94309 6.59952 6.97469 6.60918 7.00453C6.97172 8.13341 7.63711 8.43977 8.53951 8.74964ZM7.58531 5.94061C7.64237 5.88267 7.71962 5.85019 7.80126 5.85019C7.88202 5.84931 7.96015 5.88091 8.01721 5.93797L8.34375 6.26014L9.25932 5.34457C9.3787 5.22782 9.57006 5.22957 9.68858 5.3472C9.80709 5.46571 9.80797 5.65707 9.69122 5.77647L8.56059 6.9071H8.56147C8.44208 7.0256 8.24984 7.0256 8.13045 6.9071L7.58707 6.3725C7.46768 6.254 7.46681 6.06088 7.58531 5.94061ZM11.0229 7.16166C11.0229 6.99312 11.1589 6.85617 11.3284 6.85617H15.5464C15.7158 6.85617 15.8528 6.99311 15.8528 7.16166C15.8528 7.33021 15.7158 7.46715 15.5464 7.46715H11.3284C11.2467 7.46715 11.1695 7.43467 11.1115 7.37761C11.0545 7.32055 11.022 7.24242 11.0229 7.16166ZM11.0229 5.70184C11.022 5.62108 11.0545 5.54295 11.1115 5.48589C11.1695 5.42883 11.2467 5.39635 11.3284 5.39635H15.5464C15.6289 5.39372 15.7088 5.42532 15.7685 5.48326C15.8273 5.54032 15.8607 5.61932 15.8607 5.70184C15.8607 5.78435 15.8273 5.86336 15.7685 5.92129C15.7088 5.97835 15.6289 6.00995 15.5464 6.00732H11.3284C11.2467 6.00732 11.1695 5.97572 11.1124 5.91778C11.0545 5.86072 11.0229 5.78347 11.0229 5.70184Z" fill="#E51F30"/>
</svg>
