<svg width="24" height="24" viewBox="0 0 24 24" fill="none" xmlns="http://www.w3.org/2000/svg">
<path d="M20.4666 4.65421C20.2974 4.48503 20.0683 4.38986 19.8286 4.38986C19.5889 4.38986 19.3598 4.48502 19.1898 4.65421L18.4998 5.34416V1.90231C18.4998 1.66263 18.4046 1.43354 18.2355 1.26435C18.0663 1.09517 17.8372 1 17.5975 1H1.90231C1.40358 1 1 1.40358 1 1.90231V21.3601C1 21.5998 1.09428 21.8289 1.26435 21.9981C1.43354 22.1673 1.66263 22.2624 1.90231 22.2624H17.6002C17.839 22.2624 18.069 22.1673 18.2382 21.9981C18.4073 21.8289 18.5025 21.5998 18.5025 21.3601V13.2394L23.1356 8.59743C23.3048 8.42825 23.4 8.19828 23.4 7.9586C23.4 7.7198 23.3048 7.48983 23.1356 7.32064L20.4666 4.65421ZM11.0945 16.2238L11.5703 16.6997L10.8936 16.8865L11.0945 16.2238ZM11.9113 14.4871L17.8212 8.57718L19.2108 9.96678L13.3 15.8785L11.9113 14.4871ZM16.6979 20.4579H2.80457V2.80466H16.6979V7.14702L13.115 10.729H5.4657V12.5336H11.3104L9.99308 13.8509C9.83976 14.006 9.74725 14.2122 9.73403 14.4307L9.49259 15.2405H5.46559V17.0451H8.97602L8.71431 17.9474C8.61914 18.2628 8.70373 18.6048 8.93548 18.84C9.16633 19.0744 9.50736 19.1652 9.82369 19.0753L13.5527 18.024C13.7016 17.9835 13.8373 17.906 13.9475 17.7985L16.6975 15.0324L16.6979 20.4579ZM20.4869 8.69876L19.0973 7.30037L19.8304 6.56724L21.2226 7.9586L20.4869 8.69876Z" fill="#E51F30"/>
<path d="M5.46552 6.22168H14.0374V8.0263H5.46552V6.22168Z" fill="#E51F30"/>
</svg>
