<svg width="24" height="24" viewBox="0 0 24 24" fill="none" xmlns="http://www.w3.org/2000/svg">
<path d="M17 11C17 7.68629 14.3137 5 11 5C7.68629 5 5 7.68629 5 11C5 14.3137 7.68629 17 11 17C14.3137 17 17 14.3137 17 11ZM19 11C19 15.4183 15.4183 19 11 19C6.58172 19 3 15.4183 3 11C3 6.58172 6.58172 3 11 3C15.4183 3 19 6.58172 19 11Z" fill="#E51F30"/>
<path d="M15.993 15.9931C16.3835 15.6026 17.0165 15.6026 17.407 15.9931L21.7068 20.2929C22.0974 20.6834 22.0974 21.3164 21.7068 21.707C21.3163 22.0975 20.6833 22.0975 20.2928 21.707L15.993 17.4072C15.6024 17.0166 15.6024 16.3836 15.993 15.9931Z" fill="#E51F30"/>
</svg>
