<svg width="24" height="24" viewBox="0 0 24 24" fill="none" xmlns="http://www.w3.org/2000/svg">
<path d="M7.82042 3C5.89183 3 4.32879 4.56304 4.32879 6.49163C4.32879 8.42022 5.89183 9.98326 7.82042 9.98326C9.74901 9.98326 11.3121 8.42022 11.3121 6.49163C11.3121 4.56304 9.74901 3 7.82042 3ZM16.8977 4.8622C14.9691 4.8622 13.4061 6.42524 13.4061 8.35383C13.4061 10.2824 14.9691 11.8455 16.8977 11.8455C18.8263 11.8455 20.3894 10.2824 20.3894 8.35383C20.3894 6.42524 18.8263 4.8622 16.8977 4.8622ZM7.81949 10.9144C7.80858 10.9144 7.36849 15.2326 7.36849 15.2326L7.81949 15.9036L8.2714 15.2326L7.81949 10.9144ZM8.77333 10.9353L9.21433 15.307C9.22524 15.4152 9.19796 15.5234 9.13704 15.6144L8.20594 16.9983C8.02135 17.272 7.61764 17.272 7.43305 16.9983L6.50195 15.6144C6.44103 15.5243 6.41375 15.4152 6.42466 15.307L6.86384 10.9544C4.08869 11.1635 2 12.2146 2 14.5461V18.1778C2 18.1778 4.83963 18.8289 7.96394 18.8289C8.80684 18.8289 9.62881 18.7816 10.3799 18.7116V16.4084C10.3799 14.9336 11.1946 13.8306 12.3967 13.194C12.7068 13.0294 13.0423 12.8912 13.3987 12.7766C12.5695 11.6018 10.8429 11.0463 8.77325 10.9344L8.77333 10.9353ZM16.4468 17.0957L16.8987 17.7667L17.3497 17.0957L16.8987 12.7765L16.4468 17.0957ZM15.9439 12.8056C13.047 12.9857 10.8457 14.0322 10.8457 16.4083V20.0391C10.8457 20.0391 13.7281 20.6911 16.8978 20.6911C20.0685 20.6911 22.95 20.0391 22.95 20.0391V16.4083C22.95 14.0323 20.7486 12.9858 17.8518 12.8056L18.2918 17.1692C18.3028 17.2774 18.2755 17.3856 18.2146 17.4766L17.2835 18.8605C17.0989 19.1342 16.6952 19.1342 16.5106 18.8605L15.5795 17.4766C15.5185 17.3865 15.4913 17.2774 15.5022 17.1692L15.9439 12.8056Z" fill="#E51F30"/>
</svg>
