<svg width="24" height="24" viewBox="0 0 24 24" fill="none" xmlns="http://www.w3.org/2000/svg">
<path d="M5.5932 8.44531H8.03812V10.889H5.5932V8.44531Z" fill="#E51F30"/>
<path d="M9.36633 8.44531H11.8113V10.889H9.36633V8.44531Z" fill="#E51F30"/>
<path d="M13.1389 8.44531H15.5838V10.889H13.1389V8.44531Z" fill="#E51F30"/>
<path d="M16.912 8.44531H19.357V10.889H16.912V8.44531Z" fill="#E51F30"/>
<path d="M5.5932 12.1494H8.03812V14.5931H5.5932V12.1494Z" fill="#E51F30"/>
<path d="M9.36633 12.1494H11.8113V14.5931H9.36633V12.1494Z" fill="#E51F30"/>
<path d="M13.1389 12.1494H15.5838V14.5931H13.1389V12.1494Z" fill="#E51F30"/>
<path d="M16.912 12.1494H19.357V14.5931H16.912V12.1494Z" fill="#E51F30"/>
<path d="M5.5932 15.8535H8.03812V18.2972H5.5932V15.8535Z" fill="#E51F30"/>
<path d="M9.36633 15.8535H11.8113V18.2972H9.36633V15.8535Z" fill="#E51F30"/>
<path d="M20.4943 2H4.45573C3.10129 2 2 3.10129 2 4.45453V18.8015C2 20.1547 3.10249 21.256 4.45573 21.256H20.4943C21.8475 21.256 22.9488 20.1547 22.9488 18.8015L22.95 4.45453C22.95 3.10252 21.8463 2 20.4943 2ZM7.06991 4.05384H17.8789V5.20193L7.06991 5.20313V4.05384ZM21.274 18.8025C21.274 19.2332 20.9249 19.5835 20.4942 19.5835L4.4557 19.5823C4.02503 19.5823 3.67351 19.232 3.67351 18.8013L3.67471 7.11766H21.274L21.274 18.8025Z" fill="#E51F30"/>
</svg>
